<?xml version="1.0" encoding="UTF-8" standalone="no"?>
<!DOCTYPE svg PUBLIC "-//W3C//DTD SVG 1.1//EN" "http://www.w3.org/Graphics/SVG/1.1/DTD/svg11.dtd">
<svg width="100%" height="100%" viewBox="0 0 1024 1024" version="1.1" xmlns="http://www.w3.org/2000/svg" xmlns:xlink="http://www.w3.org/1999/xlink" xml:space="preserve" xmlns:serif="http://www.serif.com/" style="fill-rule:evenodd;clip-rule:evenodd;stroke-linejoin:round;stroke-miterlimit:2;">
    <g id="Fondo">
        <path d="M595.059,358.981C600.259,361.31 600.22,361.184 605.578,363.312C740.456,416.881 771.939,558.935 769.533,629.502C766.168,630.703 695.043,638.748 641.529,640.9C554.244,644.41 511.733,640.71 510.5,641.535C509.772,642.022 509.425,642.959 508.697,643.446C507.648,640.418 506.761,641.307 503.506,641.226C429.612,639.407 360.699,635.252 342.48,633.759C314.092,631.432 297.51,631.901 297.156,630.304C297.098,630.043 297.636,629.882 297.578,629.621C305.329,630.618 502.376,630.271 504.378,630.257C528.998,630.743 544.829,630.15 548.344,630.019C548.264,625.083 557.545,557.643 557.302,543.52C556.766,512.266 553.098,440.112 592.852,360.674C592.951,360.475 593.015,360.549 595.059,358.981Z" style="fill:rgb(203,143,0);stroke:rgb(203,143,0);stroke-width:1px;"/>
        <path d="M785.268,562.887L807.79,568.916L844.813,580.964L905.611,610.164L834.319,592.57L788.644,582.279L785.268,562.887Z" style="fill:rgb(29,56,55);stroke:black;stroke-width:1px;stroke-linecap:round;stroke-miterlimit:1.5;"/>
        <path d="M601.532,342.169C599.566,344.235 600.013,344.422 598.678,347.578C595.013,356.237 593.79,356.278 595.059,358.981C593.015,360.549 592.951,360.475 592.852,360.674C553.098,440.112 556.766,512.266 557.302,543.52C557.545,557.643 548.264,625.083 548.344,630.019C544.829,630.15 528.998,630.743 504.378,630.257C504.312,627.649 490.338,578.86 471.687,508.449C460.893,467.701 433.873,362.331 429.409,346.536C429.124,345.528 429.558,345.516 429.141,344.5C428.938,344.004 428.276,343.794 428.073,343.298C431.684,337.105 431.667,337.113 431.89,336.785C440.548,324.077 483.706,317.778 511.502,317.968C588.766,318.498 599.37,327.001 601.532,342.169Z" style="fill:rgb(242,181,25);"/>
        <path d="M769.533,629.502C769.367,630.474 769.322,631.463 769.156,632.434C767.461,642.35 718.86,693.654 682.32,709.085C670.942,713.889 658.601,719.101 528.475,722.072C528.978,720.454 529.035,720.47 529.018,720.324C528.984,720.036 509.914,648.222 508.697,643.446C509.425,642.959 509.772,642.022 510.5,641.535C511.733,640.71 554.244,644.41 641.529,640.9C695.043,638.748 766.168,630.703 769.533,629.502Z" style="fill:rgb(217,159,18);"/>
        <path d="M946.429,691.424C947.237,690.618 947.723,315.279 946.477,300.241C946.409,299.429 944.463,297.936 940.955,295.488C928.619,286.881 811.431,220.095 780.753,202.424C721.319,168.19 668.459,137 665.872,135.551C659.908,132.211 625.258,111.424 620.077,108.488C606.159,100.6 592.685,90.921 588.794,92.649C572.125,100.053 503.123,148.756 429.52,198.874C382.989,230.559 335.326,262.137 300.943,285.958C270.405,307.116 249.58,320.796 248.908,321.57C248.705,321.804 256.335,318.395 268.019,312.383C277.639,307.434 290.614,299.491 305.973,290.683C386.318,244.613 531.752,159.757 586.779,125.021C590.523,122.658 628.158,144.482 642.371,152.944C677.318,173.75 718.526,196.783 718.537,196.819C719.545,200.17 831.42,261.768 855.913,275.177C883.655,290.366 913.181,308.802 913.501,309.61C923.365,314.043 920.881,316.656 920.871,327.502C920.66,546.467 920.367,546.433 921.147,565.454C921.825,566.424 921.191,593.396 921.139,620.726C921.086,648.495 921.597,676.63 920.088,677.662C907.432,686.316 905.557,685.65 759.782,784.91C628.558,874.262 571.81,914.711 570.906,915.76C565.968,921.485 582.183,911.079 590.112,906.535C643.491,875.947 766.872,800.654 781.718,791.861C804.38,778.439 946.11,691.742 946.429,691.424Z" style="fill:rgb(29,55,54);"/>
        <path d="M187.873,687.021L185.677,594.036C187.661,594.444 187.011,308.062 188.034,298.48C188.266,296.313 360.765,195.403 466.052,132.879C481.885,123.477 496.096,114.741 508.026,107.379C511.054,105.511 527.438,95.565 529.712,94.196C530.71,93.594 545.185,85.057 546.879,85.5C547.169,86.146 525.952,99.793 520.655,103.435C515.783,106.785 467.402,139.089 465.967,140.075C462.589,142.397 361.596,211.762 361.596,211.762C361.596,211.762 214.45,309.603 214.644,312.845C214.968,318.277 213.15,541.322 213.641,550.405C214.018,557.388 214.769,625.83 214.699,643.15C214.631,660.112 218.468,675.344 225.732,682.543C240.173,696.856 405.5,790.253 421.789,800.013C434.052,807.36 544.367,872.326 546.407,872.868C548.273,873.364 548.201,872.4 635.227,821.02C739.739,759.316 739.361,758.798 843.79,696.991C846.93,695.132 881.579,674.625 883.501,674.538C889.202,674.281 881.337,676.606 805.792,727.929C788.427,739.727 774.075,750.308 686.202,810.064C675.102,817.612 555.214,899.127 546.452,904.724C542.879,907.006 543.356,904.125 487.724,872.115C475.63,865.156 476.049,864.468 337.216,783.973C331.914,780.899 257.135,738.63 240.548,728.81C223.951,718.984 189.785,688.225 187.873,687.021Z" style="fill:rgb(79,129,56);"/>
        <path d="M428.073,343.298C428.276,343.794 428.938,344.004 429.141,344.5C429.558,345.516 429.124,345.528 429.409,346.536C433.873,362.331 460.893,467.701 471.687,508.449C490.338,578.86 504.312,627.649 504.378,630.257C502.376,630.271 305.329,630.618 297.578,629.621C297.636,629.882 297.098,630.043 297.156,630.304C297.51,631.901 314.092,631.432 342.48,633.759C360.699,635.252 429.612,639.407 503.506,641.226C506.761,641.307 507.648,640.418 508.697,643.446C509.914,648.222 528.984,720.036 529.018,720.324C529.035,720.47 528.978,720.454 528.475,722.072C427.922,724.674 388.352,723.482 268.473,714.968C242.448,713.12 206.008,706.371 200.946,698.233C194.144,687.296 259.341,633.937 265.861,628.791C268.852,626.431 264.768,626.948 248.482,621.555C244.993,611.849 245.084,424.208 411.131,355.038C409.153,407.344 415.772,456.019 404.912,528.532C404.554,530.925 402.268,545.216 405.846,534.741C406.246,533.569 416.347,469.616 420.11,413.479C422.628,375.908 422.087,367.625 423.387,356.488C423.925,351.88 424.021,351.952 424.022,351.554C424.029,349.752 422.472,350.377 422.45,350.36C426.44,348.317 425.539,347.436 428.073,343.298Z" style="fill:rgb(254,212,71);"/>
        <path d="M748.072,459.415L759.125,477.612L786.469,436.662L812.619,391.082L824.809,365.523L845.288,317.104L833.197,332.136L822.195,349.456L811.838,367.321L803.459,379.248L788.536,403.213L776.88,420.533L763.373,440.358L748.072,459.415Z" style="fill:rgb(29,55,55);stroke:black;stroke-width:1px;stroke-linecap:round;stroke-miterlimit:1.5;"/>
        <path d="M601.532,342.169C642.806,353.448 686.71,382.69 709.606,409.366C710.086,409.726 727.578,426.316 747.129,457.713C749.35,461.28 759.31,477.542 759.244,478.479C759.211,478.928 771.721,507.374 771.804,507.524C779.193,530.571 779.137,530.751 780.773,532.05C780.683,535.111 780.889,535.02 781.574,537.478C788.287,561.575 795.637,594.113 793.839,638.926C791.587,643.01 792.047,650.572 764.478,678.479C696.986,746.799 656.842,738.644 633.481,740.25C541.701,746.556 425.58,744.407 407.502,744.073C407.055,744.064 332.005,741.509 325.491,740.623C324.178,740.445 322.895,740.017 321.571,739.956C321.154,739.937 320.814,740.408 320.398,740.389C284.072,738.493 257.463,735.005 254.5,734.397L253.382,735.716C241.999,728.957 146.615,728.415 183.936,677.804C189.687,670.005 214.604,644.958 215.505,646.544C223.41,639.8 223.229,639.723 231.167,633.096C242.955,623.256 244.651,620.903 248.482,621.555C264.768,626.948 268.852,626.431 265.861,628.791C259.341,633.937 194.144,687.296 200.946,698.233C206.008,706.371 242.448,713.12 268.473,714.968C388.352,723.482 427.922,724.674 528.475,722.072C658.601,719.101 670.942,713.889 682.32,709.085C718.86,693.654 767.461,642.35 769.156,632.434C769.322,631.463 769.367,630.474 769.533,629.502C771.939,558.935 740.456,416.881 605.578,363.312C600.22,361.184 600.259,361.31 595.059,358.981C593.79,356.278 595.013,356.237 598.678,347.578C600.013,344.422 599.566,344.235 601.532,342.169Z" style="fill:rgb(29,55,55);"/>
        <path d="M778.988,532.552C807.312,524.242 819.089,523.466 844.465,527.695C896.579,536.379 912.664,561.784 921.147,565.454C922.514,567.41 945.505,592.112 955.176,613.613C956.16,615.8 964.709,628.276 962.728,629.502C950.319,637.182 947.463,638.601 946.342,639.159C941.417,641.614 916.084,654.996 903.577,658.742C877.491,666.555 843.818,662.63 825.651,656.037C806.45,649.07 798.553,642.023 793.839,638.926C795.637,594.113 788.221,582.031 792.478,582.694C801.591,584.114 867.594,597.982 896.572,607.13C914.009,612.635 893.73,603.885 893.388,603.737C878.321,597.236 836.408,575.29 789.68,565.644C785.23,564.725 787.228,561.91 780.514,537.812C779.829,535.355 778.898,535.613 778.988,532.552Z" style="fill:rgb(79,128,56);"/>
        <path d="M547.55,631.364L588.22,630.374L613.272,628.786L628.662,624.559C628.662,624.559 647.007,616.903 661.029,603.505C675.39,589.781 685.439,570.307 685.573,570.307C685.704,570.307 698.741,549.251 709.277,525.181C720.211,500.202 728.656,472.174 728.656,472.174C728.656,472.174 721.162,458.119 709.017,442.418C698.584,428.93 684.091,414.228 675.161,406.179C665.05,397.065 634.71,376.505 634.71,376.505L612.705,367.66C612.705,367.66 604.274,385.638 600.191,395.159C598.493,399.119 594.552,407.219 591.72,414.032C585.025,430.14 578.427,447.597 578.427,447.597C578.427,447.597 570.823,475.82 567.687,489.931C564.136,505.904 557.124,543.431 557.124,543.431L547.55,631.364Z" style="fill:rgb(218,158,19);stroke:rgb(218,158,19);stroke-width:1px;stroke-linecap:round;stroke-miterlimit:1.5;"/>
        <path d="M734.75,342.169C739.803,333.409 747.028,321.906 755.034,312.27C759.251,307.196 772.636,291.388 778.434,286.96C787.886,279.741 791.35,275.97 801.748,269.459C816.783,260.043 829.567,251.035 843.555,245.449C868.539,235.473 889.527,231.466 889.87,232.141C892.894,238.1 897.657,246.231 900.976,255.808C905.373,268.493 908.224,283.452 910.824,296.678C913.96,312.635 914.155,327.435 914.048,335.269C913.766,356.103 908.494,375.942 902.531,393.667C892.331,423.985 877.424,448.455 862.573,463.568C816.373,510.588 783.16,503.348 771.804,507.524C771.721,507.374 759.211,478.928 759.244,478.479C759.31,477.542 797.858,425.325 823.35,368.431C825.165,364.381 844.397,321.459 845.321,317.497C846.49,312.484 829.339,338.614 829.141,338.944C816.032,360.865 803.309,380.699 794.114,395.052C770.452,431.986 760.401,444.597 754.95,451.836C750.582,457.636 749.35,461.28 747.129,457.713C727.578,426.316 710.086,409.726 709.606,409.366C709.905,409.225 710.199,409.938 710.497,409.797C712.412,408.892 705.52,392.842 734.75,342.169Z" style="fill:rgb(79,129,56);"/>
        <path d="M422.45,350.36C422.472,350.377 424.029,349.752 424.022,351.554C424.021,351.952 423.925,351.88 423.387,356.488C422.087,367.625 422.628,375.908 420.11,413.479C416.347,469.616 406.246,533.569 405.846,534.741C402.268,545.216 404.554,530.925 404.912,528.532C415.772,456.019 409.153,407.344 411.131,355.038C411.233,354.979 411.048,354.695 422.45,350.36Z" style="fill:rgb(210,152,12);"/>
    </g>
</svg>
